<mxfile host="app.diagrams.net" modified="2023-12-01T20:42:11.033Z" agent="Mozilla/5.0 (Windows NT 10.0; Win64; x64) AppleWebKit/537.36 (KHTML, like Gecko) Chrome/119.0.0.0 Safari/537.36 Edg/119.0.0.0" etag="LJPuobjUoFK2hMBqmZhR" version="22.1.5" type="device">
  <diagram id="A2t-fZNsI76kSq_VOavC" name="Page-1">
    <mxGraphModel dx="1042" dy="1746" grid="1" gridSize="10" guides="1" tooltips="1" connect="1" arrows="1" fold="1" page="1" pageScale="1" pageWidth="827" pageHeight="1169" math="0" shadow="0">
      <root>
        <mxCell id="0" />
        <mxCell id="1" parent="0" />
        <object placeholders="1" c4Name="User" c4Type="Person" c4Description="uses the web application for video game reviewing,&#xa; connecting with friends,&#xa; connecting with strangers" label="&lt;b&gt;%c4Name%&lt;/b&gt;&lt;div&gt;[%c4Type%]&lt;/div&gt;&lt;br&gt;&lt;div&gt;%c4Description%&lt;/div&gt;" id="T2l2FylGrx69Y6-ukKLn-2">
          <mxCell style="html=1;dashed=0;whitespace=wrap;fillColor=#08427b;strokeColor=none;fontColor=#ffffff;shape=mxgraph.c4.person;align=center;metaEdit=1;points=[[0.5,0,0],[1,0.5,0],[1,0.75,0],[0.75,1,0],[0.5,1,0],[0.25,1,0],[0,0.75,0],[0,0.5,0]];metaData={&quot;c4Type&quot;:{&quot;editable&quot;:false}};" parent="1" vertex="1">
            <mxGeometry x="300.5" y="-160" width="297" height="160" as="geometry" />
          </mxCell>
        </object>
        <object placeholders="1" c4Name="Moderator" c4Type="Person" c4Description="Oversees reported posts,&#xa; has the ability to suspend accounts,&#xa; delete any post" label="&lt;b&gt;%c4Name%&lt;/b&gt;&lt;div&gt;[%c4Type%]&lt;/div&gt;&lt;br&gt;&lt;div&gt;%c4Description%&lt;/div&gt;" id="T2l2FylGrx69Y6-ukKLn-5">
          <mxCell style="html=1;dashed=0;whitespace=wrap;fillColor=#08427b;strokeColor=none;fontColor=#ffffff;shape=mxgraph.c4.person;align=center;metaEdit=1;points=[[0.5,0,0],[1,0.5,0],[1,0.75,0],[0.75,1,0],[0.5,1,0],[0.25,1,0],[0,0.75,0],[0,0.5,0]];metaData={&quot;c4Type&quot;:{&quot;editable&quot;:false}};" parent="1" vertex="1">
            <mxGeometry x="320" y="40" width="250" height="160" as="geometry" />
          </mxCell>
        </object>
        <mxCell id="T2l2FylGrx69Y6-ukKLn-6" value="" style="edgeStyle=none;rounded=0;orthogonalLoop=1;jettySize=auto;html=1;dashed=1;strokeColor=#707070;strokeWidth=2;fontColor=#707070;entryX=0;entryY=0.25;entryDx=0;entryDy=0;entryPerimeter=0;" parent="1" target="h1G-Nl6QQMVA9QXBxMUp-1" edge="1">
          <mxGeometry relative="1" as="geometry">
            <mxPoint x="360" y="310" as="targetPoint" />
            <mxPoint x="300" y="-60" as="sourcePoint" />
            <Array as="points">
              <mxPoint x="170" y="-60" />
              <mxPoint x="170" y="350" />
            </Array>
          </mxGeometry>
        </mxCell>
        <mxCell id="T2l2FylGrx69Y6-ukKLn-7" value="" style="edgeStyle=none;rounded=0;orthogonalLoop=1;jettySize=auto;html=1;dashed=1;strokeColor=#707070;strokeWidth=2;fontColor=#707070;exitX=0.5;exitY=1;exitDx=0;exitDy=0;exitPerimeter=0;entryX=0.5;entryY=0;entryDx=0;entryDy=0;entryPerimeter=0;" parent="1" target="h1G-Nl6QQMVA9QXBxMUp-1" edge="1" source="T2l2FylGrx69Y6-ukKLn-5">
          <mxGeometry relative="1" as="geometry">
            <mxPoint x="440" y="320" as="targetPoint" />
            <mxPoint x="501" y="230" as="sourcePoint" />
          </mxGeometry>
        </mxCell>
        <mxCell id="h1G-Nl6QQMVA9QXBxMUp-2" value="Posts video game reviews,&lt;br&gt;&amp;nbsp;messages friends,&lt;br&gt;&amp;nbsp;posts on forums using" style="text;html=1;align=center;verticalAlign=middle;resizable=0;points=[];autosize=1;strokeColor=none;fillColor=none;" parent="1" vertex="1">
          <mxGeometry x="10" y="60" width="170" height="60" as="geometry" />
        </mxCell>
        <mxCell id="TxVfyUNS-hOhHLJf5Xlf-1" value="Can do the same actions as User,&lt;br&gt;&amp;nbsp;however had added functionality&lt;br&gt;&amp;nbsp;to regulate normal users" style="text;html=1;align=center;verticalAlign=middle;resizable=0;points=[];autosize=1;strokeColor=none;fillColor=none;" vertex="1" parent="1">
          <mxGeometry x="440" y="220" width="200" height="60" as="geometry" />
        </mxCell>
        <mxCell id="TxVfyUNS-hOhHLJf5Xlf-2" value="" style="edgeStyle=none;rounded=0;orthogonalLoop=1;jettySize=auto;html=1;dashed=1;strokeColor=#707070;strokeWidth=2;fontColor=#707070;exitX=1.014;exitY=0.445;exitDx=0;exitDy=0;exitPerimeter=0;" edge="1" parent="1" source="TxVfyUNS-hOhHLJf5Xlf-3">
          <mxGeometry relative="1" as="geometry">
            <mxPoint x="350" y="562.5" as="targetPoint" />
            <mxPoint x="260" y="563" as="sourcePoint" />
          </mxGeometry>
        </mxCell>
        <object placeholders="1" c4Name="External email System" c4Type="Container" c4Technology="Java" c4Description="Communicates with backend" label="&lt;b style=&quot;font-size: 9px;&quot;&gt;%c4Name%&lt;/b&gt;&lt;div style=&quot;font-size: 9px;&quot;&gt;[%c4Type%: %c4Technology%]&lt;/div&gt;&lt;br style=&quot;font-size: 9px;&quot;&gt;&lt;div style=&quot;font-size: 9px;&quot;&gt;%c4Description%&lt;/div&gt;" id="TxVfyUNS-hOhHLJf5Xlf-3">
          <mxCell style="rounded=1;whiteSpace=wrap;html=1;labelBackgroundColor=none;fillColor=#438DD5;fontColor=#ffffff;align=center;arcSize=10;strokeColor=#3C7FC0;metaEdit=1;metaData={&quot;c4Type&quot;:{&quot;editable&quot;:false}};points=[[0.25,0,0],[0.5,0,0],[0.75,0,0],[1,0.25,0],[1,0.5,0],[1,0.75,0],[0.75,1,0],[0.5,1,0],[0.25,1,0],[0,0.75,0],[0,0.5,0],[0,0.25,0]];fontSize=9;" vertex="1" parent="1">
            <mxGeometry x="20" y="510" width="200" height="120" as="geometry" />
          </mxCell>
        </object>
        <mxCell id="TxVfyUNS-hOhHLJf5Xlf-4" value="Sends emails from" style="text;html=1;align=center;verticalAlign=middle;resizable=0;points=[];autosize=1;strokeColor=none;fillColor=none;" vertex="1" parent="1">
          <mxGeometry x="229" y="530" width="120" height="30" as="geometry" />
        </mxCell>
        <mxCell id="TxVfyUNS-hOhHLJf5Xlf-5" value="" style="group;strokeColor=default;dashed=1;strokeWidth=1;perimeterSpacing=1;rounded=1;" vertex="1" connectable="0" parent="1">
          <mxGeometry x="349" y="320" width="241" height="500" as="geometry" />
        </mxCell>
        <object placeholders="1" c4Name="API application" c4Type="Container" c4Technology="Java, Spring Boot" c4Description="allows users to post video game reviews, add games to their liked ones, create forums, post on forums, chat with friends" label="&lt;b style=&quot;font-size: 9px;&quot;&gt;%c4Name%&lt;/b&gt;&lt;div style=&quot;font-size: 9px;&quot;&gt;[%c4Type%: %c4Technology%]&lt;/div&gt;&lt;br style=&quot;font-size: 9px;&quot;&gt;&lt;div style=&quot;font-size: 9px;&quot;&gt;%c4Description%&lt;/div&gt;" id="T2l2FylGrx69Y6-ukKLn-8">
          <mxCell style="rounded=1;whiteSpace=wrap;html=1;labelBackgroundColor=none;fillColor=#438DD5;fontColor=#ffffff;align=center;arcSize=10;strokeColor=default;metaEdit=1;metaData={&quot;c4Type&quot;:{&quot;editable&quot;:false}};points=[[0.25,0,0],[0.5,0,0],[0.75,0,0],[1,0.25,0],[1,0.5,0],[1,0.75,0],[0.75,1,0],[0.5,1,0],[0.25,1,0],[0,0.75,0],[0,0.5,0],[0,0.25,0]];fontSize=9;dashed=1;" parent="TxVfyUNS-hOhHLJf5Xlf-5" vertex="1">
            <mxGeometry x="1.0432900432900434" y="180" width="208.65800865800867" height="120" as="geometry" />
          </mxCell>
        </object>
        <object placeholders="1" c4Type="Database" c4Technology="MySQL" c4Description="Stores all games, posts, forums, chat messages, notifications" label="%c4Type%&lt;div style=&quot;font-size: 9px;&quot;&gt;[Container:&amp;nbsp;%c4Technology%]&lt;/div&gt;&lt;br style=&quot;font-size: 9px;&quot;&gt;&lt;div style=&quot;font-size: 9px;&quot;&gt;%c4Description%&lt;/div&gt;" id="T2l2FylGrx69Y6-ukKLn-9">
          <mxCell style="shape=cylinder;whiteSpace=wrap;html=1;boundedLbl=1;rounded=0;labelBackgroundColor=none;fillColor=#438DD5;fontSize=9;fontColor=#ffffff;align=center;strokeColor=default;metaEdit=1;points=[[0.5,0,0],[1,0.25,0],[1,0.5,0],[1,0.75,0],[0.5,1,0],[0,0.75,0],[0,0.5,0],[0,0.25,0]];metaData={&quot;c4Type&quot;:{&quot;editable&quot;:false}};dashed=1;" parent="TxVfyUNS-hOhHLJf5Xlf-5" vertex="1">
            <mxGeometry x="1.0432900432900434" y="370" width="207.61471861471864" height="130" as="geometry" />
          </mxCell>
        </object>
        <mxCell id="T2l2FylGrx69Y6-ukKLn-10" value="" style="edgeStyle=none;rounded=0;orthogonalLoop=1;jettySize=auto;html=1;dashed=1;strokeColor=default;strokeWidth=2;fontColor=#707070;exitX=0.5;exitY=1;exitDx=0;exitDy=0;exitPerimeter=0;entryX=0.5;entryY=0;entryDx=0;entryDy=0;entryPerimeter=0;" parent="TxVfyUNS-hOhHLJf5Xlf-5" edge="1">
          <mxGeometry relative="1" as="geometry">
            <mxPoint x="105.8939393939394" y="370" as="targetPoint" />
            <mxPoint x="105.37229437229438" y="300" as="sourcePoint" />
          </mxGeometry>
        </mxCell>
        <mxCell id="T2l2FylGrx69Y6-ukKLn-11" value="Reads and writes to&amp;nbsp;" style="text;html=1;align=center;verticalAlign=middle;resizable=0;points=[];autosize=1;strokeColor=default;fillColor=none;dashed=1;" parent="TxVfyUNS-hOhHLJf5Xlf-5" vertex="1">
          <mxGeometry x="105.37229437229438" y="318" width="130" height="30" as="geometry" />
        </mxCell>
        <object placeholders="1" c4Name="Front end application" c4Type="Container" c4Technology="Javascript and React" c4Description="Delivers the static content and all of the pages for the web application, communicates with back end" label="&lt;b style=&quot;font-size: 9px;&quot;&gt;%c4Name%&lt;/b&gt;&lt;div style=&quot;font-size: 9px;&quot;&gt;[%c4Type%: %c4Technology%]&lt;/div&gt;&lt;br style=&quot;font-size: 9px;&quot;&gt;&lt;div style=&quot;font-size: 9px;&quot;&gt;%c4Description%&lt;/div&gt;" id="h1G-Nl6QQMVA9QXBxMUp-1">
          <mxCell style="rounded=1;whiteSpace=wrap;html=1;labelBackgroundColor=none;fillColor=#438DD5;fontColor=#ffffff;align=center;arcSize=10;strokeColor=default;metaEdit=1;metaData={&quot;c4Type&quot;:{&quot;editable&quot;:false}};points=[[0.25,0,0],[0.5,0,0],[0.75,0,0],[1,0.25,0],[1,0.5,0],[1,0.75,0],[0.75,1,0],[0.5,1,0],[0.25,1,0],[0,0.75,0],[0,0.5,0],[0,0.25,0]];fontSize=9;dashed=1;" parent="TxVfyUNS-hOhHLJf5Xlf-5" vertex="1">
            <mxGeometry width="208.65800865800867" height="120" as="geometry" />
          </mxCell>
        </object>
        <mxCell id="h1G-Nl6QQMVA9QXBxMUp-3" value="" style="edgeStyle=none;rounded=0;orthogonalLoop=1;jettySize=auto;html=1;dashed=1;strokeColor=default;strokeWidth=2;fontColor=#707070;exitX=0.5;exitY=1;exitDx=0;exitDy=0;exitPerimeter=0;" parent="TxVfyUNS-hOhHLJf5Xlf-5" edge="1">
          <mxGeometry relative="1" as="geometry">
            <mxPoint x="106.41558441558443" y="180" as="targetPoint" />
            <mxPoint x="105.37229437229438" y="120" as="sourcePoint" />
          </mxGeometry>
        </mxCell>
        <mxCell id="h1G-Nl6QQMVA9QXBxMUp-4" value="Makes API calls to" style="text;html=1;align=center;verticalAlign=middle;resizable=0;points=[];autosize=1;strokeColor=default;fillColor=none;dashed=1;" parent="TxVfyUNS-hOhHLJf5Xlf-5" vertex="1">
          <mxGeometry x="105.37229437229438" y="138" width="120" height="30" as="geometry" />
        </mxCell>
      </root>
    </mxGraphModel>
  </diagram>
</mxfile>
